<?xml version="1.0"?>
<!-- Created by MetaPost 2.01 on 2023.01.15:0727 -->
<svg version="1.1" xmlns="http://www.w3.org/2000/svg" xmlns:xlink="http://www.w3.org/1999/xlink" width="46.128296" height="35.142334" viewBox="0 0 46.128296 35.142334">
<!-- Original BoundingBox: 0.000000 0.000000 46.128296 35.142334 -->
  <path d="M5.000000 35.000000L11.128296 29.857666C8.366867 29.857666,6.128296 27.619095,6.128296 24.857666L6.128296 4.857666C6.128296 3.319138,6.823181 1.942902,7.916245 1.025711L1.787949 6.168045C2.656754 5.439011,3.777100 5.000000,5.000000 5.000000L10.000000 5.000000C12.761429 5.000000,15.000000 7.238571,15.000000 10.000000L15.000000 35.000000L21.128296 29.857666L21.128296 4.857666C21.128296 2.096237,18.889725 -0.142334,16.128296 -0.142334L11.128296 -0.142334C9.905396 -0.142334,8.785049 0.296677,7.916245 1.025711L1.787949 6.168045C0.694885 7.085236,0.000000 8.461472,0.000000 10.000000L0.000000 30.000000C0.000000 32.761429,2.238571 35.000000,5.000000 35.000000Z" style="fill: rgb(0.000000%,0.000000%,50.000000%);stroke: none;"></path>
  <path d="M15.000000 10.000000L21.128296 4.857666C21.128296 3.319138,21.823181 1.942902,22.916245 1.025711L16.787949 6.168045C17.656754 5.439011,18.777100 5.000000,20.000000 5.000000L22.500000 5.000000C25.261429 5.000000,27.500000 7.238571,27.500000 10.000000L27.500000 30.000000C27.500000 32.761429,29.738571 35.000000,32.500000 35.000000L35.000000 35.000000C36.222900 35.000000,37.343246 34.560989,38.212051 33.831955L44.340347 28.689621C45.433411 27.772430,46.128296 26.396194,46.128296 24.857666L46.128296 4.857666C46.128296 2.096237,43.889725 -0.142334,41.128296 -0.142334L35.000000 5.000000C37.761429 5.000000,40.000000 7.238571,40.000000 10.000000L40.000000 30.000000C40.000000 31.538528,39.305115 32.914764,38.212051 33.831955L44.340347 28.689621C43.471542 29.418655,42.351196 29.857666,41.128296 29.857666L38.628296 29.857666C35.866867 29.857666,33.628296 27.619095,33.628296 24.857666L33.628296 4.857666C33.628296 2.096237,31.389725 -0.142334,28.628296 -0.142334L26.128296 -0.142334C24.905396 -0.142334,23.785049 0.296677,22.916245 1.025711L16.787949 6.168045C15.694885 7.085236,15.000000 8.461472,15.000000 10.000000Z" style="fill: rgb(50.000000%,0.000000%,0.000000%);stroke: none;"></path>
</svg>
