<?xml version="1.0"?>
<!-- Created by MetaPost 2.02 on 2023.01.15:1705 -->
<svg version="1.1" xmlns="http://www.w3.org/2000/svg" xmlns:xlink="http://www.w3.org/1999/xlink" width="51.874878" height="32.328079" viewBox="0 0 51.874878 32.328079">
<!-- Original BoundingBox: 8.125122 -1.109360 51.874878 31.218719 -->
  <path d="M15.000000 31.000000C12.448029 30.550018,10.449982 28.551971,10.000000 26.000000C8.833496 19.384354,8.833496 12.615646,10.000000 6.000000C10.449982 3.448029,12.448029 1.449982,15.000000 1.000000C16.653915 0.708374,18.346085 0.708374,20.000000 1.000000C22.761429 1.000000,25.000000 3.238571,25.000000 6.000000L25.000000 31.000000" style="stroke:rgb(0.000000%,0.000000%,89.999390%); stroke-width: 2.000000;stroke-linecap: round;stroke-linejoin: round;stroke-miterlimit: 10.000000;fill: none;"></path>
  <path d="M25.000000 6.000000C25.000000 3.381958,27.312958 1.473785,30.000000 1.000000C30.826950 0.854187,31.673050 0.854187,32.500000 1.000000C35.051971 1.449982,37.050018 3.448029,37.500000 6.000000C38.666504 12.615646,36.333496 19.384354,37.500000 26.000000C37.949982 28.551971,39.948029 30.550018,42.500000 31.000000C43.326950 31.145813,44.173050 31.145813,45.000000 31.000000C47.551971 30.550018,49.550018 28.551971,50.000000 26.000000C51.166504 19.384354,51.166504 12.615646,50.000000 6.000000C49.550018 3.448029,47.551971 1.449982,45.000000 1.000000" style="stroke:rgb(0.000000%,0.000000%,89.999390%); stroke-width: 2.000000;stroke-linecap: round;stroke-linejoin: round;stroke-miterlimit: 10.000000;fill: none;"></path>
</svg>
