<?xml version="1.0"?>
<!-- Created by MetaPost 2.02 on 2023.01.15:1731 -->
<svg version="1.1" xmlns="http://www.w3.org/2000/svg" xmlns:xlink="http://www.w3.org/1999/xlink" width="437.497498" height="323.280792" viewBox="0 0 437.497498 323.280792">
<!-- Original BoundingBox: -8.748749 -11.093597 428.748749 312.187195 -->
  <path d="M68.000000 312.000000C42.480240 307.500229,22.499771 287.519760,18.000000 262.000000C6.334991 195.843613,6.334991 128.156387,18.000000 62.000000C22.499771 36.480240,42.480240 16.499771,68.000000 12.000000C84.539093 9.083740,101.460907 9.083740,118.000000 12.000000C145.614243 12.000000,168.000000 34.385757,168.000000 62.000000L168.000000 312.000000" style="stroke:rgb(0.000000%,0.000000%,89.999390%); stroke-width: 20.000000;stroke-linecap: round;stroke-linejoin: round;stroke-miterlimit: 10.000000;fill: none;"></path>
  <path d="M168.000000 62.000000C168.000000 35.819550,191.129623 16.737915,218.000000 12.000000C226.269547 10.541870,234.730453 10.541870,243.000000 12.000000C268.519760 16.499771,288.500229 36.480240,293.000000 62.000000C304.665009 128.156387,281.334991 195.843613,293.000000 262.000000C297.499771 287.519760,317.480240 307.500229,343.000000 312.000000C351.269547 313.458130,359.730453 313.458130,368.000000 312.000000C393.519760 307.500229,413.500229 287.519760,418.000000 262.000000C429.665009 195.843613,429.665009 128.156387,418.000000 62.000000C413.500229 36.480240,393.519760 16.499771,368.000000 12.000000" style="stroke:rgb(0.000000%,0.000000%,89.999390%); stroke-width: 20.000000;stroke-linecap: round;stroke-linejoin: round;stroke-miterlimit: 10.000000;fill: none;"></path>
</svg>
