<?xml version="1.0"?>
<!-- Created by MetaPost 2.02 on 2023.01.17:1247 -->
<svg version="1.1" xmlns="http://www.w3.org/2000/svg" xmlns:xlink="http://www.w3.org/1999/xlink" width="110.550232" height="109.035538" viewBox="0 0 110.550232 109.035538">
<!-- Original BoundingBox: -38.608444 -3.785538 71.941788 105.250000 -->
  <path d="M41.535538 101.464462C22.167038 94.055374,9.059067 75.637878,9.666672 55.000000C10.397141 30.188583,30.080246 10.000000,54.666672 10.000000C79.253098 10.000000,98.936203 30.188583,99.666672 55.000000C100.274277 75.637878,87.166306 94.055374,67.797806 101.464462L74.868881 108.535538C96.727905 100.173737,110.358078 78.484024,109.666672 55.000000C108.773880 24.674942,84.716751 -0.000000,54.666672 -0.000000C24.616592 -0.000000,0.559464 24.674942,-0.333328 55.000000C-1.024734 78.484024,12.605438 100.173737,34.464462 108.535538Z" style="stroke:rgb(80.000305%,80.000305%,80.000305%); stroke-width: 0.500000;stroke-linecap: round;stroke-linejoin: round;stroke-miterlimit: 10.000000;fill: none;"></path>
  <path d="M41.535538 101.464462C22.167038 94.055374,9.059067 75.637878,9.666672 55.000000C10.397141 30.188583,30.080246 10.000000,54.666672 10.000000C79.253098 10.000000,98.936203 30.188583,99.666672 55.000000C100.274277 75.637878,87.166306 94.055374,67.797806 101.464462L74.868881 108.535538C96.727905 100.173737,110.358078 78.484024,109.666672 55.000000C108.773880 24.674942,84.716751 -0.000000,54.666672 -0.000000C24.616592 -0.000000,0.559464 24.674942,-0.333328 55.000000C-1.024734 78.484024,12.605438 100.173737,34.464462 108.535538Z" style="fill: rgb(0.000000%,0.000000%,100.000000%);stroke: none;"></path>
</svg>
