<?xml version="1.0"?>
<!-- Created by MetaPost 2.02 on 2023.01.17:1252 -->
<svg version="1.1" xmlns="http://www.w3.org/2000/svg" xmlns:xlink="http://www.w3.org/1999/xlink" width="148.191772" height="109.035538" viewBox="0 0 148.191772 109.035538">
<!-- Original BoundingBox: -38.608444 -3.785538 109.583328 105.250000 -->
  <path d="M41.535538 101.464462C22.167038 94.055374,9.059067 75.637878,9.666672 55.000000C10.397141 30.188583,30.080246 10.000000,54.666672 10.000000C79.473648 10.000000,99.544647 30.152023,99.666672 55.000000C99.763138 74.641022,86.540329 91.691299,67.797806 97.928925L74.868881 105.000000C96.109787 97.930893,109.777161 77.498062,109.666672 55.000000C109.517532 24.630264,84.986298 -0.000000,54.666672 -0.000000C24.616592 -0.000000,0.559464 24.674942,-0.333328 55.000000C-1.024734 78.484024,12.605438 100.173737,34.464462 108.535538Z" style="stroke:rgb(80.000305%,80.000305%,80.000305%); stroke-width: 0.500000;stroke-linecap: round;stroke-linejoin: round;stroke-miterlimit: 10.000000;fill: none;"></path>
  <path d="M41.535538 101.464462C22.167038 94.055374,9.059067 75.637878,9.666672 55.000000C10.397141 30.188583,30.080246 10.000000,54.666672 10.000000C79.473648 10.000000,99.544647 30.152023,99.666672 55.000000C99.763138 74.641022,86.540329 91.691299,67.797806 97.928925L74.868881 105.000000C96.109787 97.930893,109.777161 77.498062,109.666672 55.000000C109.517532 24.630264,84.986298 -0.000000,54.666672 -0.000000C24.616592 -0.000000,0.559464 24.674942,-0.333328 55.000000C-1.024734 78.484024,12.605438 100.173737,34.464462 108.535538Z" style="fill: rgb(0.000000%,0.000000%,100.000000%);stroke: none;"></path>
  <path d="M66.333344 106.464462L141.333344 106.464462L141.333344 96.464462L66.333344 96.464462Z" style="stroke:rgb(80.000305%,80.000305%,80.000305%); stroke-width: 0.500000;stroke-linecap: round;stroke-linejoin: round;stroke-miterlimit: 10.000000;fill: none;"></path>
  <path d="M66.333344 106.464462L141.333344 106.464462L141.333344 96.464462L66.333344 96.464462Z" style="fill: rgb(0.000000%,0.000000%,100.000000%);stroke: none;"></path>
  <path d="M147.333328 106.464462L146.333344 6.464462L136.333344 6.464462L135.333359 106.464462Z" style="stroke:rgb(80.000305%,80.000305%,80.000305%); stroke-width: 0.500000;stroke-linecap: round;stroke-linejoin: round;stroke-miterlimit: 10.000000;fill: none;"></path>
  <path d="M147.333328 106.464462L146.333344 6.464462L136.333344 6.464462L135.333359 106.464462Z" style="fill: rgb(0.000000%,0.000000%,100.000000%);stroke: none;"></path>
</svg>
