<?xml version="1.0"?>
<!-- Created by MetaPost 2.02 on 2023.01.17:1455 -->
<svg version="1.1" xmlns="http://www.w3.org/2000/svg" xmlns:xlink="http://www.w3.org/1999/xlink" width="152.189301" height="114.035538" viewBox="0 0 152.189301 114.035538">
<!-- Original BoundingBox: -38.605957 -5.250000 113.583344 108.785538 -->
  <path d="M39.785904 103.328384C21.161392 96.203888,9.077667 78.081711,9.664474 58.149902C10.396576 33.283188,30.051559 13.000000,54.666672 13.000000C79.478241 13.000000,99.544662 33.167862,99.666733 58.025146C99.759567 76.928787,87.690186 93.749756,69.753342 99.719254C67.766235 100.380600,66.333344 102.255219,66.333344 104.464462C66.333344 107.225845,68.571960 109.464462,71.333344 109.464462C71.885483 109.464462,72.416718 109.374954,72.913345 109.209671C94.953308 101.874634,109.780685 81.203308,109.666611 57.974854C109.517517 27.614426,84.981689 3.000000,54.666672 3.000000C24.645187 3.000000,0.560028 27.580261,-0.331131 57.850098C-1.043167 82.035385,13.615585 104.026947,36.214096 112.671616C36.768723 112.883774,37.370789 113.000000,38.000000 113.000000C40.761383 113.000000,43.000000 110.761383,43.000000 108.000000C43.000000 105.867828,41.665329 104.047318,39.785904 103.328384Z" style="stroke:rgb(80.000305%,80.000305%,80.000305%); stroke-width: 0.500000;stroke-linecap: round;stroke-linejoin: round;stroke-miterlimit: 10.000000;fill: none;"></path>
  <path d="M39.785904 103.328384C21.161392 96.203888,9.077667 78.081711,9.664474 58.149902C10.396576 33.283188,30.051559 13.000000,54.666672 13.000000C79.478241 13.000000,99.544662 33.167862,99.666733 58.025146C99.759567 76.928787,87.690186 93.749756,69.753342 99.719254C67.766235 100.380600,66.333344 102.255219,66.333344 104.464462C66.333344 107.225845,68.571960 109.464462,71.333344 109.464462C71.885483 109.464462,72.416718 109.374954,72.913345 109.209671C94.953308 101.874634,109.780685 81.203308,109.666611 57.974854C109.517517 27.614426,84.981689 3.000000,54.666672 3.000000C24.645187 3.000000,0.560028 27.580261,-0.331131 57.850098C-1.043167 82.035385,13.615585 104.026947,36.214096 112.671616C36.768723 112.883774,37.370789 113.000000,38.000000 113.000000C40.761383 113.000000,43.000000 110.761383,43.000000 108.000000C43.000000 105.867828,41.665329 104.047318,39.785904 103.328384Z" style="fill: rgb(0.000000%,0.000000%,100.000000%);stroke: none;"></path>
  <path d="M71.333344 109.464462L146.333344 109.464462C149.094727 109.464462,151.333344 107.225845,151.333344 104.464462L151.333344 4.464462C151.333344 1.703079,149.094727 -0.535538,146.333344 -0.535538C143.571960 -0.535538,141.333344 1.703079,141.333344 4.464462L141.333420 99.464462L71.333344 99.464462C68.571960 99.464462,66.333344 101.703079,66.333344 104.464462C66.333344 107.225845,68.571960 109.464462,71.333344 109.464462Z" style="stroke:rgb(80.000305%,80.000305%,80.000305%); stroke-width: 0.500000;stroke-linecap: round;stroke-linejoin: round;stroke-miterlimit: 10.000000;fill: none;"></path>
  <path d="M71.333344 109.464462L146.333344 109.464462C149.094727 109.464462,151.333344 107.225845,151.333344 104.464462L151.333344 4.464462C151.333344 1.703079,149.094727 -0.535538,146.333344 -0.535538C143.571960 -0.535538,141.333344 1.703079,141.333344 4.464462L141.333420 99.464462L71.333344 99.464462C68.571960 99.464462,66.333344 101.703079,66.333344 104.464462C66.333344 107.225845,68.571960 109.464462,71.333344 109.464462Z" style="fill: rgb(0.000000%,0.000000%,100.000000%);stroke: none;"></path>
</svg>
