<?xml version="1.0"?>
<!-- Created by MetaPost 2.02 on 2023.01.17:1456 -->
<svg version="1.1" xmlns="http://www.w3.org/2000/svg" xmlns:xlink="http://www.w3.org/1999/xlink" width="147.189316" height="107.119614" viewBox="0 0 147.189316 107.119614">
<!-- Original BoundingBox: -36.105972 -2.601837 111.083344 104.517776 -->
  <path d="M36.892960 101.664200C17.274933 94.159668,4.547455 75.070114,5.165573 54.074936C5.937439 27.857468,26.700012 6.500000,52.666672 6.500000C78.738922 6.500000,99.708374 27.816772,100.167068 54.044586C100.525391 74.533051,87.782639 92.969788,68.490448 99.877884C67.524460 100.223770,66.833344 101.147308,66.833344 102.232224C66.833344 103.612915,67.952652 104.732224,70.176239 104.586563C91.487335 96.955536,105.562103 76.588226,105.166275 53.955414C104.659912 25.001450,81.465790 1.500000,52.666672 1.500000C23.996811 1.500000,1.019165 25.006027,0.167770 53.925064C-0.512970 77.046967,13.502045 98.071182,35.107040 106.335800C37.380692 106.500000,38.500000 105.380692,38.500000 104.000000C38.500000 102.933914,37.832672 102.023666,36.892960 101.664200Z" style="stroke:rgb(80.000305%,80.000305%,80.000305%); stroke-width: 0.500000;stroke-linecap: round;stroke-linejoin: round;stroke-miterlimit: 10.000000;fill: none;"></path>
  <path d="M36.892960 101.664200C17.274933 94.159668,4.547455 75.070114,5.165573 54.074936C5.937439 27.857468,26.700012 6.500000,52.666672 6.500000C78.738922 6.500000,99.708374 27.816772,100.167068 54.044586C100.525391 74.533051,87.782639 92.969788,68.490448 99.877884C67.524460 100.223770,66.833344 101.147308,66.833344 102.232224C66.833344 103.612915,67.952652 104.732224,70.176239 104.586563C91.487335 96.955536,105.562103 76.588226,105.166275 53.955414C104.659912 25.001450,81.465790 1.500000,52.666672 1.500000C23.996811 1.500000,1.019165 25.006027,0.167770 53.925064C-0.512970 77.046967,13.502045 98.071182,35.107040 106.335800C37.380692 106.500000,38.500000 105.380692,38.500000 104.000000C38.500000 102.933914,37.832672 102.023666,36.892960 101.664200Z" style="fill: rgb(0.000000%,0.000000%,100.000000%);stroke: none;"></path>
  <path d="M69.333344 104.732224L144.333344 104.732224C145.714050 104.732224,146.833344 103.612930,146.833344 102.232224L146.833344 2.232224C146.833344 0.851532,145.714035 -0.267776,144.333344 -0.267776C142.952652 -0.267776,141.833344 0.851532,141.833344 2.232224L141.832809 99.732224L69.333344 99.732224C67.952652 99.732224,66.833344 100.851532,66.833344 102.232224C66.833344 103.612915,67.952652 104.732224,69.333344 104.732224Z" style="stroke:rgb(80.000305%,80.000305%,80.000305%); stroke-width: 0.500000;stroke-linecap: round;stroke-linejoin: round;stroke-miterlimit: 10.000000;fill: none;"></path>
  <path d="M69.333344 104.732224L144.333344 104.732224C145.714050 104.732224,146.833344 103.612930,146.833344 102.232224L146.833344 2.232224C146.833344 0.851532,145.714035 -0.267776,144.333344 -0.267776C142.952652 -0.267776,141.833344 0.851532,141.833344 2.232224L141.832809 99.732224L69.333344 99.732224C67.952652 99.732224,66.833344 100.851532,66.833344 102.232224C66.833344 103.612915,67.952652 104.732224,69.333344 104.732224Z" style="fill: rgb(0.000000%,0.000000%,100.000000%);stroke: none;"></path>
</svg>
