<?xml version="1.0"?>
<!-- Created by MetaPost 2.02 on 2023.01.17:1456 -->
<svg version="1.1" xmlns="http://www.w3.org/2000/svg" xmlns:xlink="http://www.w3.org/1999/xlink" width="157.189285" height="120.803314" viewBox="0 0 157.189285 120.803314">
<!-- Original BoundingBox: -41.105942 -7.750000 116.083344 113.053314 -->
  <path d="M43.678848 105.992584C26.047821 99.248138,14.607849 82.093277,15.163361 63.224838C15.855698 39.708847,34.403091 20.500000,57.666672 20.500000C81.202042 20.500000,100.362411 39.481766,100.166946 62.936157C100.022751 80.239777,88.675583 95.451675,72.131500 100.525101C69.063858 101.465836,66.833344 104.320816,66.833344 107.696686C66.833344 111.838760,70.191269 115.196686,74.333344 115.196686C75.099548 115.196686,75.838928 115.081787,76.535187 114.868271C99.334198 107.876709,114.967667 86.910263,115.166397 63.063843C115.431320 31.275711,89.535553 5.500000,57.666672 5.500000C26.293564 5.500000,1.100922 31.154510,0.169983 62.775162C-0.573364 88.023804,14.729156 110.982697,38.321152 120.007416C39.153091 120.325653,40.056183 120.500000,41.000000 120.500000C45.142075 120.500000,48.500000 117.142075,48.500000 113.000000C48.500000 109.801743,46.498001 107.070984,43.678848 105.992584Z" style="stroke:rgb(80.000305%,80.000305%,80.000305%); stroke-width: 0.500000;stroke-linecap: round;stroke-linejoin: round;stroke-miterlimit: 10.000000;fill: none;"></path>
  <path d="M43.678848 105.992584C26.047821 99.248138,14.607849 82.093277,15.163361 63.224838C15.855698 39.708847,34.403091 20.500000,57.666672 20.500000C81.202042 20.500000,100.362411 39.481766,100.166946 62.936157C100.022751 80.239777,88.675583 95.451675,72.131500 100.525101C69.063858 101.465836,66.833344 104.320816,66.833344 107.696686C66.833344 111.838760,70.191269 115.196686,74.333344 115.196686C75.099548 115.196686,75.838928 115.081787,76.535187 114.868271C99.334198 107.876709,114.967667 86.910263,115.166397 63.063843C115.431320 31.275711,89.535553 5.500000,57.666672 5.500000C26.293564 5.500000,1.100922 31.154510,0.169983 62.775162C-0.573364 88.023804,14.729156 110.982697,38.321152 120.007416C39.153091 120.325653,40.056183 120.500000,41.000000 120.500000C45.142075 120.500000,48.500000 117.142075,48.500000 113.000000C48.500000 109.801743,46.498001 107.070984,43.678848 105.992584Z" style="fill: rgb(0.000000%,0.000000%,100.000000%);stroke: none;"></path>
  <path d="M74.333344 115.196686L149.333344 115.196686C153.475418 115.196686,156.833344 111.838760,156.833344 107.696686L156.833344 7.696686C156.833344 3.554611,153.475418 0.196686,149.333344 0.196686C145.191269 0.196686,141.833344 3.554611,141.833344 7.696686L141.832886 100.196686L74.333344 100.196686C70.191269 100.196686,66.833344 103.554611,66.833344 107.696686C66.833344 111.838760,70.191269 115.196686,74.333344 115.196686Z" style="stroke:rgb(80.000305%,80.000305%,80.000305%); stroke-width: 0.500000;stroke-linecap: round;stroke-linejoin: round;stroke-miterlimit: 10.000000;fill: none;"></path>
  <path d="M74.333344 115.196686L149.333344 115.196686C153.475418 115.196686,156.833344 111.838760,156.833344 107.696686L156.833344 7.696686C156.833344 3.554611,153.475418 0.196686,149.333344 0.196686C145.191269 0.196686,141.833344 3.554611,141.833344 7.696686L141.832886 100.196686L74.333344 100.196686C70.191269 100.196686,66.833344 103.554611,66.833344 107.696686C66.833344 111.838760,70.191269 115.196686,74.333344 115.196686Z" style="fill: rgb(0.000000%,0.000000%,100.000000%);stroke: none;"></path>
</svg>
