<?xml version="1.0"?>
<!-- Created by MetaPost 2.02 on 2023.01.20:1440 -->
<svg version="1.1" xmlns="http://www.w3.org/2000/svg" xmlns:xlink="http://www.w3.org/1999/xlink" width="112.545624" height="107.699982" viewBox="0 0 112.545624 107.699982">
<!-- Original BoundingBox: -39.606140 -2.649963 72.939484 105.050018 -->
  <path d="M43.146332 103.265320C23.414124 95.717102,11.042877 76.188126,11.666672 55.000000C12.393921 30.298050,31.400482 9.800018,55.666672 9.800018C79.932861 9.800018,98.939423 30.298050,99.666672 55.000000C100.290466 76.188126,87.919220 95.717102,68.187012 103.265320C67.044769 103.702255,66.333344 104.317902,66.333344 105.000000C66.333344 106.325439,69.019684 107.399963,72.333344 107.399963C73.941742 107.399963,75.402328 107.146805,76.479675 106.734680C97.973236 98.512680,112.341812 77.931885,111.666672 55.000000C110.770508 24.560410,86.042755 0.199982,55.666672 0.199982C25.290588 0.199982,0.562836 24.560410,-0.333328 55.000000C-1.008469 77.931885,13.360107 98.512680,34.853668 106.734680C35.931015 107.146805,37.391602 107.399963,39.000000 107.399963C42.313660 107.399963,45.000000 106.325439,45.000000 105.000000C45.000000 104.317902,44.288574 103.702255,43.146332 103.265320Z" style="stroke:rgb(80.000305%,80.000305%,80.000305%); stroke-width: 0.500000;stroke-linecap: round;stroke-linejoin: round;stroke-miterlimit: 10.000000;fill: none;"></path>
  <path d="M43.146332 103.265320C23.414124 95.717102,11.042877 76.188126,11.666672 55.000000C12.393921 30.298050,31.400482 9.800018,55.666672 9.800018C79.932861 9.800018,98.939423 30.298050,99.666672 55.000000C100.290466 76.188126,87.919220 95.717102,68.187012 103.265320C67.044769 103.702255,66.333344 104.317902,66.333344 105.000000C66.333344 106.325439,69.019684 107.399963,72.333344 107.399963C73.941742 107.399963,75.402328 107.146805,76.479675 106.734680C97.973236 98.512680,112.341812 77.931885,111.666672 55.000000C110.770508 24.560410,86.042755 0.199982,55.666672 0.199982C25.290588 0.199982,0.562836 24.560410,-0.333328 55.000000C-1.008469 77.931885,13.360107 98.512680,34.853668 106.734680C35.931015 107.146805,37.391602 107.399963,39.000000 107.399963C42.313660 107.399963,45.000000 106.325439,45.000000 105.000000C45.000000 104.317902,44.288574 103.702255,43.146332 103.265320Z" style="fill: rgb(0.000000%,0.000000%,100.000000%);stroke: none;"></path>
  <path d="M43.146332 103.265320C23.414124 95.717102,11.042877 76.188126,11.666672 55.000000C12.393921 30.298050,31.400482 9.800018,55.666672 9.800018C79.932861 9.800018,98.939423 30.298050,99.666672 55.000000C100.290466 76.188126,87.919220 95.717102,68.187012 103.265320C67.044769 103.702255,66.333344 104.317902,66.333344 105.000000C66.333344 106.325439,69.019684 107.399963,72.333344 107.399963C73.941742 107.399963,75.402328 107.146805,76.479675 106.734680C97.973236 98.512680,112.341812 77.931885,111.666672 55.000000C110.770508 24.560410,86.042755 0.199982,55.666672 0.199982C25.290588 0.199982,0.562836 24.560410,-0.333328 55.000000C-1.008469 77.931885,13.360107 98.512680,34.853668 106.734680C35.931015 107.146805,37.391602 107.399963,39.000000 107.399963C42.313660 107.399963,45.000000 106.325439,45.000000 105.000000C45.000000 104.317902,44.288574 103.702255,43.146332 103.265320Z" style="stroke:rgb(80.000305%,80.000305%,80.000305%); stroke-width: 0.500000;stroke-linecap: round;stroke-linejoin: round;stroke-miterlimit: 10.000000;fill: none;"></path>
  <path d="M43.146332 103.265320C23.414124 95.717102,11.042877 76.188126,11.666672 55.000000C12.393921 30.298050,31.400482 9.800018,55.666672 9.800018C79.932861 9.800018,98.939423 30.298050,99.666672 55.000000C100.290466 76.188126,87.919220 95.717102,68.187012 103.265320C67.044769 103.702255,66.333344 104.317902,66.333344 105.000000C66.333344 106.325439,69.019684 107.399963,72.333344 107.399963C73.941742 107.399963,75.402328 107.146805,76.479675 106.734680C97.973236 98.512680,112.341812 77.931885,111.666672 55.000000C110.770508 24.560410,86.042755 0.199982,55.666672 0.199982C25.290588 0.199982,0.562836 24.560410,-0.333328 55.000000C-1.008469 77.931885,13.360107 98.512680,34.853668 106.734680C35.931015 107.146805,37.391602 107.399963,39.000000 107.399963C42.313660 107.399963,45.000000 106.325439,45.000000 105.000000C45.000000 104.317902,44.288574 103.702255,43.146332 103.265320Z" style="fill: rgb(0.000000%,0.000000%,100.000000%);stroke: none;"></path>
</svg>
