<?xml version="1.0"?>
<!-- Created by MetaPost 2.02 on 2023.01.15:1732 -->
<svg version="1.1" xmlns="http://www.w3.org/2000/svg" xmlns:xlink="http://www.w3.org/1999/xlink" width="387.500000" height="310.000000" viewBox="0 0 387.500000 310.000000">
<!-- Original BoundingBox: -5.000000 -5.000000 382.500000 305.000000 -->
  <path d="M55.000000 305.000000C27.385757 305.000000,5.000000 282.614243,5.000000 255.000000L5.000000 55.000000C5.000000 27.385757,27.385757 5.000000,55.000000 5.000000L105.000000 5.000000C132.614243 5.000000,155.000000 27.385757,155.000000 55.000000L155.000000 305.000000" style="stroke:rgb(0.000000%,0.000000%,50.000000%); stroke-width: 10.000000;stroke-linecap: round;stroke-linejoin: round;stroke-miterlimit: 10.000000;fill: none;"></path>
  <path d="M155.000000 55.000000C155.000000 27.385757,177.385757 5.000000,205.000000 5.000000L207.500000 5.000000C235.114243 5.000000,257.500000 27.385757,257.500000 55.000000L257.500000 255.000000C257.500000 282.614243,279.885757 305.000000,307.500000 305.000000L332.500000 305.000000C360.114243 305.000000,382.500000 282.614243,382.500000 255.000000L382.500000 55.000000C382.500000 27.385757,360.114243 5.000000,332.500000 5.000000" style="stroke:rgb(50.000000%,0.000000%,0.000000%); stroke-width: 10.000000;stroke-linecap: round;stroke-linejoin: round;stroke-miterlimit: 10.000000;fill: none;"></path>
</svg>
