<?xml version="1.0"?>
<!-- Created by MetaPost 2.02 on 2023.01.15:1705 -->
<svg version="1.1" xmlns="http://www.w3.org/2000/svg" xmlns:xlink="http://www.w3.org/1999/xlink" width="57.097260" height="57.072906" viewBox="0 0 57.097260 57.072906">
<!-- Original BoundingBox: -0.025970 0.000000 57.071289 57.072906 -->
  <path d="M15.000000 57.000000L22.071075 49.928925C12.508118 45.359818,6.602432 35.516983,7.071075 24.928925C7.376221 18.035019,10.263367 11.792465,14.786392 7.269440L7.715317 14.340515C12.184143 9.871689,18.249878 7.081436,25.000000 7.000000C38.832916 6.833115,50.055786 18.127060,50.000000 32.000000C49.972290 38.892044,47.168304 45.128189,42.648239 49.648254L49.719315 42.577179C45.199265 47.097244,38.963120 49.901215,32.071075 49.928925L25.000000 57.000000C31.892044 56.972290,38.128189 54.168304,42.648254 49.648239L49.719330 42.577164C54.239395 38.057114,57.043365 31.820969,57.071075 24.928925C57.126862 11.055984,45.903992 -0.237961,32.071075 -0.071075C25.320953 0.010361,19.255219 2.800613,14.786392 7.269440L7.715317 14.340515C3.192291 18.863541,0.305145 25.106094,0.000000 32.000000C-0.468643 42.588058,5.437042 52.430893,15.000000 57.000000Z" style="fill: rgb(0.000000%,0.000000%,100.000000%);stroke: none;"></path>
</svg>
