<?xml version="1.0"?>
<!-- Created by MetaPost 2.02 on 2023.01.15:1723 -->
<svg version="1.1" xmlns="http://www.w3.org/2000/svg" xmlns:xlink="http://www.w3.org/1999/xlink" width="570.972610" height="570.729019" viewBox="0 0 570.972610 570.729019">
<!-- Original BoundingBox: -0.259781 0.000000 570.712830 570.729019 -->
  <path d="M150.000000 570.000000L220.710754 499.289246C125.081238 453.598190,66.024261 355.169907,70.710754 249.289246C73.762131 180.350143,102.633575 117.924637,147.863770 72.694443L77.153015 143.405197C121.841324 98.716873,182.498764 70.814346,250.000000 70.000000C388.329208 68.331161,500.557861 181.270569,500.000000 320.000000C499.722855 388.920471,471.683090 451.281906,426.482483 496.482498L497.193237 425.771744C451.992645 470.972336,389.631226 499.012100,320.710754 499.289246L250.000000 570.000000C318.920471 569.722855,381.281906 541.683090,426.482498 496.482483L497.193253 425.771729C542.393845 380.571136,570.433609 318.209717,570.710754 249.289246C571.268616 110.559814,459.039963 -2.379593,320.710754 -0.710754C253.209518 0.103592,192.552078 28.006119,147.863770 72.694443L77.153015 143.405197C31.922821 188.635391,3.051376 251.060898,0.000000 320.000000C-4.686493 425.880661,54.370483 524.308945,150.000000 570.000000Z" style="fill: rgb(0.000000%,0.000000%,100.000000%);stroke: none;"></path>
</svg>
