<?xml version="1.0"?>
<!-- Created by MetaPost 2.02 on 2023.01.17:1222 -->
<svg version="1.1" xmlns="http://www.w3.org/2000/svg" xmlns:xlink="http://www.w3.org/1999/xlink" width="158.809723" height="163.499954" viewBox="0 0 158.809723 163.499954">
<!-- Original BoundingBox: -26.904861 -8.249954 131.904861 155.250000 -->
  <path d="M42.499680 137.794357C33.815247 117.936615,28.221130 96.510391,31.000000 75.000000C35.155746 42.831497,49.060699 10.000000,78.500000 10.000000C107.939301 10.000000,121.844254 42.831497,126.000000 75.000000C128.778870 96.510391,123.184753 117.936615,114.500320 137.794357C113.535385 140.000717,113.000046 142.437851,113.000046 145.000000C113.000046 154.940948,121.059052 162.999954,131.000000 162.999954C138.378799 162.999954,144.720734 158.559799,147.499680 152.205643C158.071487 128.032272,159.378448 101.151581,156.000000 75.000000C150.669830 33.740601,119.054901 -0.000000,78.500000 -0.000000C37.945099 -0.000000,6.330170 33.740601,1.000000 75.000000C-2.378448 101.151581,-1.071487 128.032272,9.500320 152.205643C12.279266 158.559799,18.621201 162.999954,26.000000 162.999954C35.940948 162.999954,43.999954 154.940948,43.999954 145.000000C43.999954 142.437851,43.464615 140.000717,42.499680 137.794357Z" style="stroke:rgb(80.000305%,80.000305%,80.000305%); stroke-width: 0.500000;stroke-linecap: round;stroke-linejoin: round;stroke-miterlimit: 10.000000;fill: none;"></path>
  <path d="M42.499680 137.794357C33.815247 117.936615,28.221130 96.510391,31.000000 75.000000C35.155746 42.831497,49.060699 10.000000,78.500000 10.000000C107.939301 10.000000,121.844254 42.831497,126.000000 75.000000C128.778870 96.510391,123.184753 117.936615,114.500320 137.794357C113.535385 140.000717,113.000046 142.437851,113.000046 145.000000C113.000046 154.940948,121.059052 162.999954,131.000000 162.999954C138.378799 162.999954,144.720734 158.559799,147.499680 152.205643C158.071487 128.032272,159.378448 101.151581,156.000000 75.000000C150.669830 33.740601,119.054901 -0.000000,78.500000 -0.000000C37.945099 -0.000000,6.330170 33.740601,1.000000 75.000000C-2.378448 101.151581,-1.071487 128.032272,9.500320 152.205643C12.279266 158.559799,18.621201 162.999954,26.000000 162.999954C35.940948 162.999954,43.999954 154.940948,43.999954 145.000000C43.999954 142.437851,43.464615 140.000717,42.499680 137.794357Z" style="fill: rgb(0.000000%,0.000000%,100.000000%);stroke: none;"></path>
</svg>
