<?xml version="1.0"?>
<!-- Created by MetaPost 2.02 on 2023.01.17:1222 -->
<svg version="1.1" xmlns="http://www.w3.org/2000/svg" xmlns:xlink="http://www.w3.org/1999/xlink" width="225.154816" height="176.499908" viewBox="0 0 225.154816 176.499908">
<!-- Original BoundingBox: -26.904861 -8.249954 198.249954 168.249954 -->
  <path d="M42.499680 150.794357C33.815247 130.936615,28.221130 109.510391,31.000000 88.000000C35.155746 55.831497,49.060699 23.000000,78.500000 23.000000C107.892685 23.000000,121.207657 56.046951,126.000000 88.000000C130.061356 115.079193,126.602051 142.753738,116.000000 168.000000L146.000000 168.000000C156.602051 142.753738,160.061356 115.079193,156.000000 88.000000C149.839401 46.924088,118.826508 13.000000,78.500000 13.000000C37.945099 13.000000,6.330170 46.740601,1.000000 88.000000C-2.378448 114.151581,-1.071487 141.032272,9.500320 165.205643C12.279266 171.559799,18.621201 175.999954,26.000000 175.999954C35.940948 175.999954,43.999954 167.940948,43.999954 158.000000C43.999954 155.437851,43.464615 153.000717,42.499680 150.794357Z" style="stroke:rgb(80.000305%,80.000305%,80.000305%); stroke-width: 0.500000;stroke-linecap: round;stroke-linejoin: round;stroke-miterlimit: 10.000000;fill: none;"></path>
  <path d="M42.499680 150.794357C33.815247 130.936615,28.221130 109.510391,31.000000 88.000000C35.155746 55.831497,49.060699 23.000000,78.500000 23.000000C107.892685 23.000000,121.207657 56.046951,126.000000 88.000000C130.061356 115.079193,126.602051 142.753738,116.000000 168.000000L146.000000 168.000000C156.602051 142.753738,160.061356 115.079193,156.000000 88.000000C149.839401 46.924088,118.826508 13.000000,78.500000 13.000000C37.945099 13.000000,6.330170 46.740601,1.000000 88.000000C-2.378448 114.151581,-1.071487 141.032272,9.500320 165.205643C12.279266 171.559799,18.621201 175.999954,26.000000 175.999954C35.940948 175.999954,43.999954 167.940948,43.999954 158.000000C43.999954 155.437851,43.464615 153.000717,42.499680 150.794357Z" style="fill: rgb(0.000000%,0.000000%,100.000000%);stroke: none;"></path>
  <path d="M131.000000 168.000000L206.000000 168.000000L206.000000 158.000000L131.000000 158.000000Z" style="stroke:rgb(80.000305%,80.000305%,80.000305%); stroke-width: 0.500000;stroke-linecap: round;stroke-linejoin: round;stroke-miterlimit: 10.000000;fill: none;"></path>
  <path d="M131.000000 168.000000L206.000000 168.000000L206.000000 158.000000L131.000000 158.000000Z" style="fill: rgb(0.000000%,0.000000%,100.000000%);stroke: none;"></path>
  <path d="M223.999954 168.000000L223.999954 18.000000C223.999954 8.059052,215.940948 0.000046,206.000000 0.000046C196.059052 0.000046,188.000046 8.059052,188.000046 18.000000L188.000046 168.000000Z" style="stroke:rgb(80.000305%,80.000305%,80.000305%); stroke-width: 0.500000;stroke-linecap: round;stroke-linejoin: round;stroke-miterlimit: 10.000000;fill: none;"></path>
  <path d="M223.999954 168.000000L223.999954 18.000000C223.999954 8.059052,215.940948 0.000046,206.000000 0.000046C196.059052 0.000046,188.000046 8.059052,188.000046 18.000000L188.000046 168.000000Z" style="fill: rgb(0.000000%,0.000000%,100.000000%);stroke: none;"></path>
</svg>
