<?xml version="1.0"?>
<!-- Created by MetaPost 2.02 on 2023.01.15:1726 -->
<svg version="1.1" xmlns="http://www.w3.org/2000/svg" xmlns:xlink="http://www.w3.org/1999/xlink" width="321.282959" height="356.423340" viewBox="0 0 321.282959 356.423340">
<!-- Original BoundingBox: 5.000000 -5.000000 321.282959 351.423340 -->
  <path d="M60.000000 351.000000L121.282959 299.576660C93.668716 299.576660,71.282959 277.190903,71.282959 249.576660L71.282959 49.576660C71.282959 34.191360,78.231888 20.429062,89.162399 11.257111L27.879440 62.680450C36.567505 55.390182,47.771057 51.000000,60.000000 51.000000L110.000000 51.000000C137.614243 51.000000,160.000000 73.385757,160.000000 101.000000L160.000000 301.000000C160.000000 316.385300,153.051071 330.147598,142.120560 339.319550L203.403519 287.896210C194.715454 295.186478,183.511902 299.576660,171.282959 299.576660L110.000000 351.000000C122.228943 351.000000,133.432495 346.609818,142.120560 339.319550L203.403519 287.896210C214.334030 278.724258,221.282959 264.961960,221.282959 249.576660L221.282959 49.576660C221.282959 21.962418,198.897202 -0.423340,171.282959 -0.423340L121.282959 -0.423340C109.054016 -0.423340,97.850464 3.966843,89.162399 11.257111L27.879440 62.680450C16.948929 71.852402,10.000000 85.614700,10.000000 101.000000L10.000000 301.000000C10.000000 328.614243,32.385757 351.000000,60.000000 351.000000Z" style="fill: rgb(80.000305%,0.000000%,0.000000%);stroke: none;"></path>
  <path d="M171.282959 299.576660L110.000000 351.000000L210.000000 351.000000C222.228943 351.000000,233.432495 346.609818,242.120560 339.319550L303.403519 287.896210C314.334030 278.724258,321.282959 264.961960,321.282959 249.576660L321.282959 -0.423340L260.000000 51.000000L260.000000 301.000000C260.000000 316.385300,253.051071 330.147598,242.120560 339.319550L303.403519 287.896210C294.715454 295.186478,283.511902 299.576660,271.282959 299.576660Z" style="fill: rgb(80.000305%,0.000000%,0.000000%);stroke: none;"></path>
  <path d="M60.000000 351.000000C32.385757 351.000000,10.000000 328.614243,10.000000 301.000000L10.000000 101.000000C10.000000 73.385757,32.385757 51.000000,60.000000 51.000000L110.000000 51.000000C137.614243 51.000000,160.000000 73.385757,160.000000 101.000000L160.000000 301.000000C160.000000 328.614243,137.614243 351.000000,110.000000 351.000000" style="stroke:rgb(0.000000%,0.000000%,80.000305%); stroke-width: 10.000000;stroke-linecap: round;stroke-linejoin: round;stroke-miterlimit: 10.000000;fill: none;"></path>
  <path d="M110.000000 351.000000L210.000000 351.000000C237.614243 351.000000,260.000000 328.614243,260.000000 301.000000L260.000000 51.000000" style="stroke:rgb(0.000000%,0.000000%,80.000305%); stroke-width: 10.000000;stroke-linecap: round;stroke-linejoin: round;stroke-miterlimit: 10.000000;fill: none;"></path>
</svg>
