<?xml version="1.0"?>
<!-- Created by MetaPost 2.02 on 2023.01.15:1739 -->
<svg version="1.1" xmlns="http://www.w3.org/2000/svg" xmlns:xlink="http://www.w3.org/1999/xlink" width="438.782959" height="351.423340" viewBox="0 0 438.782959 351.423340">
<!-- Original BoundingBox: 0.000000 0.000000 438.782959 351.423340 -->
  <path d="M50.000000 351.000000L111.282959 299.576660C83.668716 299.576660,61.282959 277.190903,61.282959 249.576660L61.282959 49.576660C61.282959 34.191360,68.231888 20.429062,79.162399 11.257111L17.879440 62.680450C26.567505 55.390182,37.771057 51.000000,50.000000 51.000000L100.000000 51.000000C127.614243 51.000000,150.000000 73.385757,150.000000 101.000000L150.000000 351.000000L211.282959 299.576660L211.282959 49.576660C211.282959 21.962418,188.897202 -0.423340,161.282959 -0.423340L111.282959 -0.423340C99.054016 -0.423340,87.850464 3.966843,79.162399 11.257111L17.879440 62.680450C6.948929 71.852402,0.000000 85.614700,0.000000 101.000000L0.000000 301.000000C0.000000 328.614243,22.385757 351.000000,50.000000 351.000000Z" style="fill: rgb(10.000610%,36.999512%,71.000671%);stroke: none;"></path>
  <path d="M150.000000 101.000000L211.282959 49.576660C211.282959 34.191360,218.231888 20.429062,229.162399 11.257111L167.879440 62.680450C176.567505 55.390182,187.771057 51.000000,200.000000 51.000000L202.500000 51.000000C230.114243 51.000000,252.500000 73.385757,252.500000 101.000000L252.500000 301.000000C252.500000 328.614243,274.885757 351.000000,302.500000 351.000000L327.500000 351.000000C339.728943 351.000000,350.932495 346.609818,359.620560 339.319550L420.903519 287.896210C431.834030 278.724258,438.782959 264.961960,438.782959 249.576660L438.782959 49.576660C438.782959 21.962418,416.397202 -0.423340,388.782959 -0.423340L327.500000 51.000000C355.114243 51.000000,377.500000 73.385757,377.500000 101.000000L377.500000 301.000000C377.500000 316.385300,370.551071 330.147598,359.620560 339.319550L420.903519 287.896210C412.215454 295.186478,401.011902 299.576660,388.782959 299.576660L363.782959 299.576660C336.168716 299.576660,313.782959 277.190903,313.782959 249.576660L313.782959 49.576660C313.782959 21.962418,291.397202 -0.423340,263.782959 -0.423340L261.282959 -0.423340C249.054016 -0.423340,237.850464 3.966843,229.162399 11.257111L167.879440 62.680450C156.948929 71.852402,150.000000 85.614700,150.000000 101.000000Z" style="fill: rgb(10.000610%,36.999512%,71.000671%);stroke: none;"></path>
</svg>
