<?xml version="1.0"?>
<!-- Created by MetaPost 2.02 on 2023.01.20:1501 -->
<svg version="1.1" xmlns="http://www.w3.org/2000/svg" xmlns:xlink="http://www.w3.org/1999/xlink" width="140.500000" height="110.500000" viewBox="0 0 140.500000 110.500000">
<!-- Original BoundingBox: -10.250000 -5.250000 130.250000 105.250000 -->
  <path d="M35.000000 100.000000C25.647659 100.000000,20.000000 90.243134,20.000000 80.000000L20.000000 30.000000C20.000000 17.322708,33.503677 10.000000,47.500000 10.000000C61.496323 10.000000,75.000000 17.322708,75.000000 30.000000L75.000000 80.000000C75.000000 90.243134,69.352341 100.000000,60.000000 100.000000L60.000000 110.000000C78.484802 110.000000,95.000000 97.556763,95.000000 80.000000L95.000000 30.000000C95.000000 9.291763,71.060379 -0.000000,47.500000 -0.000000C23.939621 -0.000000,0.000000 9.291763,0.000000 30.000000L0.000000 80.000000C0.000000 97.556763,16.515198 110.000000,35.000000 110.000000Z" style="stroke:rgb(80.000305%,80.000305%,80.000305%); stroke-width: 0.500000;stroke-linecap: round;stroke-linejoin: round;stroke-miterlimit: 10.000000;fill: none;"></path>
  <path d="M35.000000 100.000000C25.647659 100.000000,20.000000 90.243134,20.000000 80.000000L20.000000 30.000000C20.000000 17.322708,33.503677 10.000000,47.500000 10.000000C61.496323 10.000000,75.000000 17.322708,75.000000 30.000000L75.000000 80.000000C75.000000 90.243134,69.352341 100.000000,60.000000 100.000000L60.000000 110.000000C78.484802 110.000000,95.000000 97.556763,95.000000 80.000000L95.000000 30.000000C95.000000 9.291763,71.060379 -0.000000,47.500000 -0.000000C23.939621 -0.000000,0.000000 9.291763,0.000000 30.000000L0.000000 80.000000C0.000000 97.556763,16.515198 110.000000,35.000000 110.000000Z" style="fill: rgb(0.000000%,0.000000%,100.000000%);stroke: none;"></path>
  <path d="M60.000000 110.000000L120.000000 110.000000L120.000000 90.000000L80.000000 90.000000Z" style="stroke:rgb(80.000305%,80.000305%,80.000305%); stroke-width: 0.500000;stroke-linecap: round;stroke-linejoin: round;stroke-miterlimit: 10.000000;fill: none;"></path>
  <path d="M60.000000 110.000000L120.000000 110.000000L120.000000 90.000000L80.000000 90.000000Z" style="fill: rgb(0.000000%,0.000000%,100.000000%);stroke: none;"></path>
  <path d="M140.000000 110.000000L140.000000 5.000000L120.000000 5.000000L120.000000 110.000000Z" style="stroke:rgb(80.000305%,80.000305%,80.000305%); stroke-width: 0.500000;stroke-linecap: round;stroke-linejoin: round;stroke-miterlimit: 10.000000;fill: none;"></path>
  <path d="M140.000000 110.000000L140.000000 5.000000L120.000000 5.000000L120.000000 110.000000Z" style="fill: rgb(0.000000%,0.000000%,100.000000%);stroke: none;"></path>
</svg>
