<?xml version="1.0"?>
<!-- Created by MetaPost 2.02 on 2023.01.20:1507 -->
<svg version="1.1" xmlns="http://www.w3.org/2000/svg" xmlns:xlink="http://www.w3.org/1999/xlink" width="180.500610" height="110.500000" viewBox="0 0 180.500610 110.500000">
<!-- Original BoundingBox: -10.250000 -5.250000 170.250610 105.250000 -->
  <path d="M35.000000 100.000000C25.647659 100.000000,20.000000 90.243134,20.000000 80.000000L20.000000 30.000000C20.000000 18.954254,28.954498 10.000000,40.000305 10.000000C51.046112 10.000000,60.000610 18.954254,60.000610 30.000000L60.000610 80.000000L60.000610 110.000000L80.000610 110.000000L80.000610 80.000000L80.000610 30.000000C80.000610 11.295258,60.486710 -0.000000,40.000305 -0.000000C19.513901 -0.000000,0.000000 11.295258,0.000000 30.000000L0.000000 80.000000C0.000000 97.556763,16.515198 110.000000,35.000000 110.000000Z" style="stroke:rgb(80.000305%,80.000305%,80.000305%); stroke-width: 0.500000;stroke-linecap: round;stroke-linejoin: round;stroke-miterlimit: 10.000000;fill: none;"></path>
  <path d="M35.000000 100.000000C25.647659 100.000000,20.000000 90.243134,20.000000 80.000000L20.000000 30.000000C20.000000 18.954254,28.954498 10.000000,40.000305 10.000000C51.046112 10.000000,60.000610 18.954254,60.000610 30.000000L60.000610 80.000000L60.000610 110.000000L80.000610 110.000000L80.000610 80.000000L80.000610 30.000000C80.000610 11.295258,60.486710 -0.000000,40.000305 -0.000000C19.513901 -0.000000,0.000000 11.295258,0.000000 30.000000L0.000000 80.000000C0.000000 97.556763,16.515198 110.000000,35.000000 110.000000Z" style="fill: rgb(0.000000%,0.000000%,100.000000%);stroke: none;"></path>
  <path d="M80.000610 30.000000C80.000610 19.756866,85.648270 10.000000,95.000610 10.000000C104.352951 10.000000,110.000610 19.756866,110.000610 30.000000L110.000610 80.000000C110.000610 97.556763,126.515808 110.000000,145.000610 110.000000C163.485413 110.000000,180.000610 97.556763,180.000610 80.000000L180.000610 30.000000C180.000610 12.443237,163.485413 -0.000000,145.000610 -0.000000L145.000610 10.000000C154.352951 10.000000,160.000610 19.756866,160.000610 30.000000L160.000610 80.000000C160.000610 90.243134,154.352951 100.000000,145.000610 100.000000C135.648270 100.000000,130.000610 90.243134,130.000610 80.000000L130.000610 30.000000C130.000610 12.443237,113.485413 -0.000000,95.000610 -0.000000C76.515808 -0.000000,60.000610 12.443237,60.000610 30.000000Z" style="stroke:rgb(80.000305%,80.000305%,80.000305%); stroke-width: 0.500000;stroke-linecap: round;stroke-linejoin: round;stroke-miterlimit: 10.000000;fill: none;"></path>
  <path d="M80.000610 30.000000C80.000610 19.756866,85.648270 10.000000,95.000610 10.000000C104.352951 10.000000,110.000610 19.756866,110.000610 30.000000L110.000610 80.000000C110.000610 97.556763,126.515808 110.000000,145.000610 110.000000C163.485413 110.000000,180.000610 97.556763,180.000610 80.000000L180.000610 30.000000C180.000610 12.443237,163.485413 -0.000000,145.000610 -0.000000L145.000610 10.000000C154.352951 10.000000,160.000610 19.756866,160.000610 30.000000L160.000610 80.000000C160.000610 90.243134,154.352951 100.000000,145.000610 100.000000C135.648270 100.000000,130.000610 90.243134,130.000610 80.000000L130.000610 30.000000C130.000610 12.443237,113.485413 -0.000000,95.000610 -0.000000C76.515808 -0.000000,60.000610 12.443237,60.000610 30.000000Z" style="fill: rgb(0.000000%,0.000000%,100.000000%);stroke: none;"></path>
</svg>
